<svg xmlns="http://www.w3.org/2000/svg" width="623.079" height="324.804" viewBox="0 0 623.079 324.804">
  <path id="Union_6" data-name="Union 6" d="M174.337,326.016,314.166,214.435l-36.53-.5s-142.1-3.013-210.671-21.873S3.358,138.493,3.358,138.493L0,97.083s6.052-5.858,16.322,4.495,24.757,36.915,24.757,36.915,148-2.455,277.979-.423L171.374,22.148s2.247-25.979,63.44,4.708c45.6,22.868,125.083,83.666,162.63,113.167l1.529.057c139.176,5.214,161.432,8.776,169.662,17.328A93.385,93.385,0,0,1,581.8,174.927s37.309,9.176,40.966,26.7-26.335,16.685-26.335,16.685L394.6,215.539c-46.293,35.853-108.372,81.784-147.989,102.54-27.2,14.253-44.186,18.6-54.776,18.6C175.249,336.686,174.337,326.016,174.337,326.016Z" transform="translate(0 -11.88)" fill="#fff"/>
</svg>
