<svg xmlns="http://www.w3.org/2000/svg" xmlns:xlink="http://www.w3.org/1999/xlink" width="700" height="692" viewBox="0 0 700 692">
  <defs>
    <clipPath id="clip-path">
      <ellipse id="Ellipse_14" data-name="Ellipse 14" cx="350" cy="346" rx="350" ry="346" transform="translate(-0.274 0.109)" fill="rgba(0,0,0,0.26)"/>
    </clipPath>
  </defs>
  <g id="Mask_Group_14" data-name="Mask Group 14" transform="translate(0.274 -0.109)" clip-path="url(#clip-path)">
    <rect id="Rectangle_218" data-name="Rectangle 218" width="925" height="782" transform="translate(-155.274 -20.891)" fill="rgba(223,223,223,0.44)"/>
    <path id="Union_5" data-name="Union 5" d="M39.313,453.133c-100.882-104.089,90.558-80.528,77.492-114-.241-.367-.475-.724-.71-1.085C51.412,333.846,0,267.5,0,186.27,0,102.336,54.9,34.288,122.613,34.288c38.263,0,102.279,35.4,134.062,73.837-112.835,38.106,29.23,60.269-11.438,78.146-43.756,19.248-112.163,5.229-122.624,36.923-59.847-4.993-23.783,47.917-3.864,83.675,11.874,6.54,26.247,18.77,30.479,26.337,35.038,8.908,39.26,38.631,57.9,57.368,30.68,8.056-18.181,70.71-18.181,104.749-42.033,55.791-75.549,24.8-88.615,96.693-2.494,13.719-6.262,19.558-10.722,19.562C70.708,611.591,39.313,506.72,39.313,453.133Zm447.054-49.575c-4.086-8.669-23.443-3.982-46.8.7-24.535,4.922-53.5,9.848-73.847-.7-31.173-16.63-50.362-108.907-25.827-114.079,3.162-14.555,22.918-45.572,49.722-52.2,29.209-7.214,50.32-13.15,50.614-25.667.452-20.094-22.183-13.436-44.575-6.775-21.7,6.469-43.168,12.918-43.168-4.99-63.281-2.813-34.986-16.331-27.55-35.576,28.432,3.551,29.23-6.846,27.13-17.254-2.227-11.125-7.772-22.257,13.654-16.3,19.8-10,23.411-62.2,48.545-75.023,20.313.418,37.811-13.719,54.112-27.847C488.395,10.5,506.617-6.85,526.048,2.735c75.979,37.516,133.1,190.466,133.1,273.409,0,120.911,69.94,328.776-50.972,328.776C571.044,604.92,512.751,459.568,486.367,403.558Z" transform="translate(45.397 -30.919)" fill="rgba(255,255,255,0.47)"/>
  </g>
</svg>
